Baadshah (1999)
 
http://www.shotpix.com/images/75111862791013440876.jpg


[B]INFO[/B]
 
http://www.imdb.com/title/tt0211934/

[CODE]Format : AVI
Format/Info : Audio Video Interleave
File size : 1.37 GiB
Duration : 2h 47mn
Overall bit rate : 1 167 Kbps
Writing application : VirtualDubMod 1.5.10.2 (build 2542/release)
Writing library : VirtualDubMod build 2542/release

Video
ID : 0
Format : MPEG-4 Visual
Format profile : Advanced Simple@L5
Format settings, BVOP : 2
Format settings, QPel : No
Format settings, GMC : No warppoints
Format settings, Matrix : Default (MPEG)
Muxing mode : Packed bitstream
Codec ID : XVID
Codec ID/Hint : XviD
Duration : 2h 47mn
Bit rate : 966 Kbps
Width : 608 pixels
Height : 304 pixels
Display aspect ratio : 2.000
Frame rate : 23.976 fps
Color space : YUV
Chroma subsampling : 4:2:0
Bit depth : 8 bits
Scan type : Progressive
Compression mode : Lossy
Bits/(Pixel*Frame) : 0.218
Stream size : 1.13 GiB (83%)
Writing library : XviD 1.2.1 (UTC 2008-12-04)

Audio
ID : 1
Format : AC-3
Format/Info : Audio Coding 3
Mode extension : CM (complete main)
Codec ID : 2000
Duration : 2h 47mn
Bit rate mode : Constant
Bit rate : 192 Kbps
Channel(s) : 6 channels
Channel positions : Front: L C R, Side: L R, LFE
Sampling rate : 48.0 KHz
Bit depth : 16 bits
Compression mode : Lossy
Stream size : 230 MiB (16%)
Alignment : Split accross interleaves
Interleave, duration : 42 ms (1.00 video frame)
Interleave, preload duration : 500 ms[/CODE]




[B]SCREEN SHOTS[/B]
 
http://www.shotpix.com/images/80793122474395260885.png
 
http://www.shotpix.com/images/89874346856430704919.png
 
http://www.shotpix.com/images/21245837755216985108.png
 
http://www.shotpix.com/images/37254375651474534453.png
 
http://www.shotpix.com/images/47548608100241106316.png
 
http://www.shotpix.com/images/56019645205076356204.png
 
http://www.shotpix.com/images/95684103970611703513.png
 
http://www.shotpix.com/images/95861122374803438270.png
 
http://www.shotpix.com/images/78547770465643552538.png
 
http://www.shotpix.com/images/95596545170440800326.png